<?xml version="1.0" standalone="no"?>
<!DOCTYPE svg PUBLIC "-//W3C//DTD SVG 20010904//EN"
 "http://www.w3.org/TR/2001/REC-SVG-20010904/DTD/svg10.dtd">
<svg version="1.0" xmlns="http://www.w3.org/2000/svg"
 width="260.000000pt" height="260.000000pt" viewBox="0 0 260.000000 260.000000"
 preserveAspectRatio="xMidYMid meet">
<metadata>
Created by potrace 1.11, written by Peter Selinger 2001-2013
</metadata>
<g transform="translate(0.000000,260.000000) scale(0.100000,-0.100000)"
fill="#000000" stroke="none">
<path d="M475 2402 c-106 -18 -186 -95 -211 -202 -4 -19 -8 -183 -9 -365 -1
-265 -4 -336 -16 -360 -11 -23 -32 -37 -89 -62 l-75 -32 -5 -53 c-8 -80 -1
-108 27 -119 65 -24 136 -65 146 -83 7 -14 11 -133 12 -361 1 -398 6 -424 83
-501 57 -55 115 -74 234 -74 l88 0 0 110 0 110 -69 0 c-52 0 -72 4 -82 17 -11
13 -14 84 -16 347 -2 201 -7 351 -14 381 -12 55 -54 135 -70 135 -5 0 1 15 15
33 35 46 56 103 62 167 3 30 6 193 7 361 1 221 5 310 14 320 9 11 32 15 83 14
l70 -1 0 114 0 113 -82 -3 c-46 -1 -92 -4 -103 -6z"/>
<path d="M1942 2298 l3 -113 60 -1 c82 -2 82 -2 91 -21 4 -10 9 -162 10 -338
3 -349 10 -409 55 -481 30 -47 35 -64 20 -64 -16 0 -60 -102 -66 -155 -4 -27
-7 -192 -8 -366 -2 -251 -5 -319 -16 -332 -10 -13 -30 -17 -82 -17 l-69 0 0
-111 0 -112 108 5 c153 7 218 44 270 158 l26 55 2 340 c1 187 5 351 8 364 8
34 21 44 96 77 36 15 70 33 75 40 12 13 10 144 -2 154 -5 4 -38 19 -75 34
-109 45 -101 14 -103 414 -1 191 -6 361 -10 377 -21 81 -79 151 -150 181 -25
10 -78 18 -143 21 l-103 4 3 -113z"/>
<path d="M1182 1609 c-104 -23 -187 -67 -255 -136 -92 -91 -137 -209 -137
-356 0 -133 36 -228 120 -321 93 -101 235 -153 418 -154 238 -1 396 91 473
276 17 41 27 78 22 82 -18 16 -167 70 -173 63 -4 -5 -12 -28 -19 -53 -25 -86
-68 -140 -139 -171 -56 -24 -92 -31 -173 -31 -124 0 -227 44 -281 119 -46 63
-60 110 -60 197 1 202 135 330 351 335 152 3 241 -50 291 -175 13 -32 25 -61
26 -63 2 -2 41 13 88 34 96 43 94 37 39 147 -19 37 -54 85 -79 108 -115 106
-311 144 -512 99z"/>
</g>
</svg>
